<svg version="1.1" xmlns="http://www.w3.org/2000/svg" xmlns:xlink="http://www.w3.org/1999/xlink" width="1631" height="884"><defs/><g><g transform="translate(-126,-134) scale(1,1)"><path fill="none" stroke="#000000" d="M 616 971 L 176 971 L 176 532" stroke-miterlimit="10"/></g><g transform="translate(-126,-134) scale(1,1)"><path fill="none" stroke="#000000" d="M 180.209517756016 542.1626748576241 L 176 532 L 171.790482243984 542.1626748576241" stroke-miterlimit="10"/></g><g transform="translate(-126,-134) scale(1,1)"><path fill="#FFFFFF" stroke="none" d="M 605.8373251423759 975.209517756016 L 616 971 L 605.8373251423758 966.790482243984 L 594 971"/></g><g transform="translate(-126,-134) scale(1,1)"><path fill="none" stroke="#000000" d="M 605.8373251423759 975.209517756016 L 616 971 L 605.8373251423758 966.790482243984 L 594 971 L 605.8373251423759 975.209517756016" stroke-miterlimit="10"/></g><g transform="translate(-126,-134) scale(1,1)"><rect fill="#C0C0C0" stroke="none" x="735" y="151" width="254.31787109375" height="105" opacity="0.2"/></g><g transform="translate(-126,-134) scale(1,1)"><rect fill="#ffffff" stroke="none" x="728" y="144" width="254.31787109375" height="105"/></g><g transform="translate(-126,-134) scale(1,1)"><path fill="none" stroke="#000000" d="M 728 144 L 982.31787109375 144 L 982.31787109375 249 L 728 249 L 728 144 Z Z" stroke-miterlimit="10"/></g><g transform="translate(-126,-134) scale(1,1)"><path fill="none" stroke="#000000" d="M 728 182 L 982.31787109375 182" stroke-miterlimit="10"/></g><g transform="translate(-126,-134) scale(1,1)"><g><path fill="none" stroke="none"/><text fill="#000000" stroke="none" font-family="Arial" font-size="13px" font-style="normal" font-weight="normal" text-decoration="none" x="822.99853515625" y="161.5">«interface»</text></g></g><g transform="translate(-126,-134) scale(1,1)"><g><path fill="none" stroke="none"/><text fill="#000000" stroke="none" font-family="Arial" font-size="13px" font-style="normal" font-weight="bold" text-decoration="none" x="838.17578125" y="176.5">IState</text></g></g><g transform="translate(-126,-134) scale(1,1)"><g><path fill="none" stroke="none"/><text fill="#000000" stroke="none" font-family="Arial" font-size="13px" font-style="normal" font-weight="normal" text-decoration="none" x="733" y="199.5">+void enter()</text></g></g><g transform="translate(-126,-134) scale(1,1)"><g><path fill="none" stroke="none"/><text fill="#000000" stroke="none" font-family="Arial" font-size="13px" font-style="normal" font-weight="normal" text-decoration="none" x="733" y="214.5">+void exit()</text></g></g><g transform="translate(-126,-134) scale(1,1)"><g><path fill="none" stroke="none"/><text fill="#000000" stroke="none" font-family="Arial" font-size="13px" font-style="normal" font-weight="normal" text-decoration="none" x="733" y="229.5">+String getName()</text></g></g><g transform="translate(-126,-134) scale(1,1)"><g><path fill="none" stroke="none"/><text fill="#000000" stroke="none" font-family="Arial" font-size="13px" font-style="normal" font-weight="normal" text-decoration="none" x="733" y="244.5">+boolean processMessage(Message msg)</text></g></g><g transform="translate(-126,-134) scale(1,1)"><rect fill="#C0C0C0" stroke="none" x="735" y="326" width="254.31787109375" height="102" opacity="0.2"/></g><g transform="translate(-126,-134) scale(1,1)"><rect fill="#ffffff" stroke="none" x="728" y="319" width="254.31787109375" height="102"/></g><g transform="translate(-126,-134) scale(1,1)"><path fill="none" stroke="#000000" d="M 728 319 L 982.31787109375 319 L 982.31787109375 421 L 728 421 L 728 319 Z Z" stroke-miterlimit="10"/></g><g transform="translate(-126,-134) scale(1,1)"><path fill="none" stroke="#000000" d="M 728 344 L 982.31787109375 344" stroke-miterlimit="10"/></g><g transform="translate(-126,-134) scale(1,1)"><path fill="none" stroke="#000000" d="M 728 354 L 982.31787109375 354" stroke-miterlimit="10"/></g><g transform="translate(-126,-134) scale(1,1)"><g><path fill="none" stroke="none"/><text fill="#000000" stroke="none" font-family="Arial" font-size="13px" font-style="normal" font-weight="bold" text-decoration="none" x="839.981689453125" y="338.5">State</text></g></g><g transform="translate(-126,-134) scale(1,1)"><g><path fill="none" stroke="none"/><text fill="#000000" stroke="none" font-family="Arial" font-size="13px" font-style="normal" font-weight="normal" text-decoration="none" x="733" y="371.5">+void enter()</text></g></g><g transform="translate(-126,-134) scale(1,1)"><g><path fill="none" stroke="none"/><text fill="#000000" stroke="none" font-family="Arial" font-size="13px" font-style="normal" font-weight="normal" text-decoration="none" x="733" y="386.5">+void exit()</text></g></g><g transform="translate(-126,-134) scale(1,1)"><g><path fill="none" stroke="none"/><text fill="#000000" stroke="none" font-family="Arial" font-size="13px" font-style="normal" font-weight="normal" text-decoration="none" x="733" y="401.5">+String getName()</text></g></g><g transform="translate(-126,-134) scale(1,1)"><g><path fill="none" stroke="none"/><text fill="#000000" stroke="none" font-family="Arial" font-size="13px" font-style="normal" font-weight="normal" text-decoration="none" x="733" y="416.5">+boolean processMessage(Message msg)</text></g></g><g transform="translate(-126,-134) scale(1,1)"><path fill="none" stroke="#000000" d="M 855 318 L 855 250" stroke-miterlimit="10" stroke-dasharray="3"/></g><g transform="translate(-126,-134) scale(1,1)"><path fill="#FFFFFF" stroke="none" d="M 863.419035512032 270.3253497152483 L 855 250 L 846.580964487968 270.3253497152483"/></g><g transform="translate(-126,-134) scale(1,1)"><path fill="none" stroke="#000000" d="M 863.419035512032 270.3253497152483 L 855 250 L 846.580964487968 270.3253497152483 L 863.419035512032 270.3253497152483" stroke-miterlimit="10"/></g><g transform="translate(-126,-134) scale(1,1)"><rect fill="#C0C0C0" stroke="none" x="687" y="527" width="254.31787109375" height="57" opacity="0.2"/></g><g transform="translate(-126,-134) scale(1,1)"><rect fill="#ffffff" stroke="none" x="680" y="520" width="254.31787109375" height="57"/></g><g transform="translate(-126,-134) scale(1,1)"><path fill="none" stroke="#000000" d="M 680 520 L 934.31787109375 520 L 934.31787109375 577 L 680 577 L 680 520 Z Z" stroke-miterlimit="10"/></g><g transform="translate(-126,-134) scale(1,1)"><path fill="none" stroke="#000000" d="M 680 545 L 934.31787109375 545" stroke-miterlimit="10"/></g><g transform="translate(-126,-134) scale(1,1)"><path fill="none" stroke="#000000" d="M 680 555 L 934.31787109375 555" stroke-miterlimit="10"/></g><g transform="translate(-126,-134) scale(1,1)"><g><path fill="none" stroke="none"/><text fill="#000000" stroke="none" font-family="Arial" font-size="13px" font-style="normal" font-weight="bold" text-decoration="none" x="771.74853515625" y="539.5">HaltingState</text></g></g><g transform="translate(-126,-134) scale(1,1)"><g><path fill="none" stroke="none"/><text fill="#000000" stroke="none" font-family="Arial" font-size="13px" font-style="normal" font-weight="normal" text-decoration="none" x="685" y="572.5">+boolean processMessage(Message msg)</text></g></g><g transform="translate(-126,-134) scale(1,1)"><rect fill="#C0C0C0" stroke="none" x="607" y="751" width="442.1513671875" height="102" opacity="0.2"/></g><g transform="translate(-126,-134) scale(1,1)"><rect fill="#ffffff" stroke="none" x="600" y="744" width="442.1513671875" height="102"/></g><g transform="translate(-126,-134) scale(1,1)"><path fill="none" stroke="#000000" d="M 600 744 L 1042.1513671875 744 L 1042.1513671875 846 L 600 846 L 600 744 Z Z" stroke-miterlimit="10"/></g><g transform="translate(-126,-134) scale(1,1)"><path fill="none" stroke="#000000" d="M 600 769 L 1042.1513671875 769" stroke-miterlimit="10"/></g><g transform="translate(-126,-134) scale(1,1)"><path fill="none" stroke="#000000" d="M 600 779 L 1042.1513671875 779" stroke-miterlimit="10"/></g><g transform="translate(-126,-134) scale(1,1)"><g><path fill="none" stroke="none"/><text fill="#000000" stroke="none" font-family="Arial" font-size="13px" font-style="normal" font-weight="bold" text-decoration="none" x="788.56298828125" y="763.5">SmHandler</text></g></g><g transform="translate(-126,-134) scale(1,1)"><g><path fill="none" stroke="none"/><text fill="#000000" stroke="none" font-family="Arial" font-size="13px" font-style="normal" font-weight="normal" text-decoration="none" x="605" y="796.5">+private final StateInfo addState(State state, State parent)</text></g></g><g transform="translate(-126,-134) scale(1,1)"><g><path fill="none" stroke="none"/><text fill="#000000" stroke="none" font-family="Arial" font-size="13px" font-style="normal" font-weight="normal" text-decoration="none" x="605" y="811.5">+private void performTransitions(State msgProcessedState, Message msg)</text></g></g><g transform="translate(-126,-134) scale(1,1)"><g><path fill="none" stroke="none"/><text fill="#000000" stroke="none" font-family="Arial" font-size="13px" font-style="normal" font-weight="normal" text-decoration="none" x="605" y="826.5">+private final void transitionTo(IState destState)</text></g></g><g transform="translate(-126,-134) scale(1,1)"><g><path fill="none" stroke="none"/><text fill="#000000" stroke="none" font-family="Arial" font-size="13px" font-style="normal" font-weight="normal" text-decoration="none" x="605" y="841.5">+public final void handleMessage(Message msg)</text></g></g><g transform="translate(-126,-134) scale(1,1)"><rect fill="#C0C0C0" stroke="none" x="551" y="527" width="64.61181640625" height="44" opacity="0.2"/></g><g transform="translate(-126,-134) scale(1,1)"><rect fill="#ffffff" stroke="none" x="544" y="520" width="64.61181640625" height="44"/></g><g transform="translate(-126,-134) scale(1,1)"><path fill="none" stroke="#000000" d="M 544 520 L 608.61181640625 520 L 608.61181640625 564 L 544 564 L 544 520 Z Z" stroke-miterlimit="10"/></g><g transform="translate(-126,-134) scale(1,1)"><path fill="none" stroke="#000000" d="M 544 545 L 608.61181640625 545" stroke-miterlimit="10"/></g><g transform="translate(-126,-134) scale(1,1)"><path fill="none" stroke="#000000" d="M 544 555 L 608.61181640625 555" stroke-miterlimit="10"/></g><g transform="translate(-126,-134) scale(1,1)"><g><path fill="none" stroke="none"/><text fill="#000000" stroke="none" font-family="Arial" font-size="13px" font-style="normal" font-weight="bold" text-decoration="none" x="550.286865234375" y="539.5">StateInfo</text></g></g><g transform="translate(-126,-134) scale(1,1)"><path fill="none" stroke="#000000" d="M 576 520 L 576 370 L 728 370" stroke-miterlimit="10"/></g><g transform="translate(-126,-134) scale(1,1)"><path fill="none" stroke="#000000" d="M 717.8373251423759 374.209517756016 L 728 370 L 717.8373251423758 365.790482243984" stroke-miterlimit="10"/></g><g transform="translate(-126,-134) scale(1,1)"><path fill="#FFFFFF" stroke="none" d="M 571.790482243984 509.83732514237585 L 576 520 L 580.209517756016 509.83732514237585 L 576 498"/></g><g transform="translate(-126,-134) scale(1,1)"><path fill="none" stroke="#000000" d="M 571.790482243984 509.83732514237585 L 576 520 L 580.209517756016 509.83732514237585 L 576 498 L 571.790482243984 509.83732514237585" stroke-miterlimit="10"/></g><g transform="translate(-126,-134) scale(1,1)"><path fill="none" stroke="#000000" d="M 817 744 L 817 680 L 576 680 L 576 564" stroke-miterlimit="10"/></g><g transform="translate(-126,-134) scale(1,1)"><path fill="none" stroke="#000000" d="M 580.209517756016 574.1626748576241 L 576 564 L 571.790482243984 574.1626748576241" stroke-miterlimit="10"/></g><g transform="translate(-126,-134) scale(1,1)"><path fill="#FFFFFF" stroke="none" d="M 812.790482243984 733.8373251423759 L 817 744 L 821.209517756016 733.8373251423759 L 817 722"/></g><g transform="translate(-126,-134) scale(1,1)"><path fill="none" stroke="#000000" d="M 812.790482243984 733.8373251423759 L 817 744 L 821.209517756016 733.8373251423759 L 817 722 L 812.790482243984 733.8373251423759" stroke-miterlimit="10"/></g><g transform="translate(-126,-134) scale(1,1)"><path fill="none" stroke="#000000" d="M 807 520 L 807 421" stroke-miterlimit="10"/></g><g transform="translate(-126,-134) scale(1,1)"><path fill="#FFFFFF" stroke="none" d="M 815.419035512032 441.3253497152483 L 807 421 L 798.580964487968 441.3253497152483"/></g><g transform="translate(-126,-134) scale(1,1)"><path fill="none" stroke="#000000" d="M 815.419035512032 441.3253497152483 L 807 421 L 798.580964487968 441.3253497152483 L 815.419035512032 441.3253497152483" stroke-miterlimit="10"/></g><g transform="translate(-126,-134) scale(1,1)"><path fill="none" stroke="#000000" d="M 816 577 L 816 744" stroke-miterlimit="10"/></g><g transform="translate(-126,-134) scale(1,1)"><path fill="#FFFFFF" stroke="none" d="M 811.790482243984 733.8373251423759 L 816 744 L 820.209517756016 733.8373251423759 L 816 722"/></g><g transform="translate(-126,-134) scale(1,1)"><path fill="none" stroke="#000000" d="M 811.790482243984 733.8373251423759 L 816 744 L 820.209517756016 733.8373251423759 L 816 722 L 811.790482243984 733.8373251423759" stroke-miterlimit="10"/></g><g transform="translate(-126,-134) scale(1,1)"><path fill="none" stroke="#000000" d="M 820.209517756016 587.1626748576241 L 816 577 L 811.790482243984 587.1626748576241" stroke-miterlimit="10"/></g><g transform="translate(-126,-134) scale(1,1)"><rect fill="#C0C0C0" stroke="none" x="1015" y="527" width="296" height="57" opacity="0.2"/></g><g transform="translate(-126,-134) scale(1,1)"><rect fill="#ffffff" stroke="none" x="1008" y="520" width="296" height="57"/></g><g transform="translate(-126,-134) scale(1,1)"><path fill="none" stroke="#000000" d="M 1008 520 L 1304 520 L 1304 577 L 1008 577 L 1008 520 Z Z" stroke-miterlimit="10"/></g><g transform="translate(-126,-134) scale(1,1)"><path fill="none" stroke="#000000" d="M 1008 545 L 1304 545" stroke-miterlimit="10"/></g><g transform="translate(-126,-134) scale(1,1)"><path fill="none" stroke="#000000" d="M 1008 555 L 1304 555" stroke-miterlimit="10"/></g><g transform="translate(-126,-134) scale(1,1)"><g><path fill="none" stroke="none"/><text fill="#000000" stroke="none" font-family="Arial" font-size="13px" font-style="normal" font-weight="bold" text-decoration="none" x="1118.421875" y="539.5">QuittingState</text></g></g><g transform="translate(-126,-134) scale(1,1)"><g><path fill="none" stroke="none"/><text fill="#000000" stroke="none" font-family="Arial" font-size="13px" font-style="normal" font-weight="normal" text-decoration="none" x="1013" y="572.5">+boolean processMessage(Message msg)</text></g></g><g transform="translate(-126,-134) scale(1,1)"><path fill="none" stroke="#000000" d="M 1120 577 L 1120 680 L 817 680 L 817 744" stroke-miterlimit="10"/></g><g transform="translate(-126,-134) scale(1,1)"><path fill="#FFFFFF" stroke="none" d="M 812.790482243984 733.8373251423759 L 817 744 L 821.209517756016 733.8373251423759 L 817 722"/></g><g transform="translate(-126,-134) scale(1,1)"><path fill="none" stroke="#000000" d="M 812.790482243984 733.8373251423759 L 817 744 L 821.209517756016 733.8373251423759 L 817 722 L 812.790482243984 733.8373251423759" stroke-miterlimit="10"/></g><g transform="translate(-126,-134) scale(1,1)"><path fill="none" stroke="#000000" d="M 1124.2095177560159 587.1626748576241 L 1120 577 L 1115.7904822439841 587.1626748576241" stroke-miterlimit="10"/></g><g transform="translate(-126,-134) scale(1,1)"><path fill="none" stroke="#000000" d="M 1135 520 L 1135 384 L 982 384" stroke-miterlimit="10"/></g><g transform="translate(-126,-134) scale(1,1)"><path fill="#FFFFFF" stroke="none" d="M 1002.3253497152483 375.580964487968 L 982 384 L 1002.3253497152483 392.419035512032"/></g><g transform="translate(-126,-134) scale(1,1)"><path fill="none" stroke="#000000" d="M 1002.3253497152483 375.580964487968 L 982 384 L 1002.3253497152483 392.419035512032 L 1002.3253497152483 375.580964487968" stroke-miterlimit="10"/></g><g transform="translate(-126,-134) scale(1,1)"><rect fill="#C0C0C0" stroke="none" x="623" y="927" width="402.40869140625" height="88" opacity="0.2"/></g><g transform="translate(-126,-134) scale(1,1)"><rect fill="#ffffff" stroke="none" x="616" y="920" width="402.40869140625" height="88"/></g><g transform="translate(-126,-134) scale(1,1)"><path fill="none" stroke="#000000" d="M 616 920 L 1018.40869140625 920 L 1018.40869140625 1008 L 616 1008 L 616 920 Z Z" stroke-miterlimit="10"/></g><g transform="translate(-126,-134) scale(1,1)"><path fill="none" stroke="#000000" d="M 616 945 L 1018.40869140625 945" stroke-miterlimit="10"/></g><g transform="translate(-126,-134) scale(1,1)"><path fill="none" stroke="#000000" d="M 616 955 L 1018.40869140625 955" stroke-miterlimit="10"/></g><g transform="translate(-126,-134) scale(1,1)"><g><path fill="none" stroke="none"/><text fill="#000000" stroke="none" font-family="Arial" font-size="13px" font-style="normal" font-weight="bold" text-decoration="none" x="777.45849609375" y="939.5">StateMachine</text></g></g><g transform="translate(-126,-134) scale(1,1)"><g><path fill="none" stroke="none"/><text fill="#000000" stroke="none" font-family="Arial" font-size="13px" font-style="normal" font-weight="normal" text-decoration="none" x="621" y="972.5">+protected final void addState(State state)</text></g></g><g transform="translate(-126,-134) scale(1,1)"><g><path fill="none" stroke="none"/><text fill="#000000" stroke="none" font-family="Arial" font-size="13px" font-style="normal" font-weight="normal" text-decoration="none" x="621" y="987.5">+protected final void transitionTo(IState destState)</text></g></g><g transform="translate(-126,-134) scale(1,1)"><g><path fill="none" stroke="none"/><text fill="#000000" stroke="none" font-family="Arial" font-size="13px" font-style="normal" font-weight="normal" text-decoration="none" x="621" y="1002.5">+public final void sendMessage(Message msg)</text></g></g><g transform="translate(-126,-134) scale(1,1)"><rect fill="#C0C0C0" stroke="none" x="143" y="495" width="80.6708984375" height="44" opacity="0.2"/></g><g transform="translate(-126,-134) scale(1,1)"><rect fill="#ffffff" stroke="none" x="136" y="488" width="80.6708984375" height="44"/></g><g transform="translate(-126,-134) scale(1,1)"><path fill="none" stroke="#000000" d="M 136 488 L 216.6708984375 488 L 216.6708984375 532 L 136 532 L 136 488 Z Z" stroke-miterlimit="10"/></g><g transform="translate(-126,-134) scale(1,1)"><path fill="none" stroke="#000000" d="M 136 513 L 216.6708984375 513" stroke-miterlimit="10"/></g><g transform="translate(-126,-134) scale(1,1)"><path fill="none" stroke="#000000" d="M 136 523 L 216.6708984375 523" stroke-miterlimit="10"/></g><g transform="translate(-126,-134) scale(1,1)"><g><path fill="none" stroke="none"/><text fill="#000000" stroke="none" font-family="Arial" font-size="13px" font-style="normal" font-weight="bold" text-decoration="none" x="153.931396484375" y="507.5">LogRec</text></g></g><g transform="translate(-126,-134) scale(1,1)"><rect fill="#C0C0C0" stroke="none" x="311" y="495" width="84.841796875" height="44" opacity="0.2"/></g><g transform="translate(-126,-134) scale(1,1)"><rect fill="#ffffff" stroke="none" x="304" y="488" width="84.841796875" height="44"/></g><g transform="translate(-126,-134) scale(1,1)"><path fill="none" stroke="#000000" d="M 304 488 L 388.841796875 488 L 388.841796875 532 L 304 532 L 304 488 Z Z" stroke-miterlimit="10"/></g><g transform="translate(-126,-134) scale(1,1)"><path fill="none" stroke="#000000" d="M 304 513 L 388.841796875 513" stroke-miterlimit="10"/></g><g transform="translate(-126,-134) scale(1,1)"><path fill="none" stroke="#000000" d="M 304 523 L 388.841796875 523" stroke-miterlimit="10"/></g><g transform="translate(-126,-134) scale(1,1)"><g><path fill="none" stroke="none"/><text fill="#000000" stroke="none" font-family="Arial" font-size="13px" font-style="normal" font-weight="bold" text-decoration="none" x="311.372314453125" y="507.5">LogRecords</text></g></g><g transform="translate(-126,-134) scale(1,1)"><path fill="none" stroke="#000000" d="M 217 512 L 304 512" stroke-miterlimit="10"/></g><g transform="translate(-126,-134) scale(1,1)"><path fill="#FFFFFF" stroke="none" d="M 293.83732514237585 516.209517756016 L 304 512 L 293.83732514237585 507.790482243984 L 282 512"/></g><g transform="translate(-126,-134) scale(1,1)"><path fill="none" stroke="#000000" d="M 293.83732514237585 516.209517756016 L 304 512 L 293.83732514237585 507.790482243984 L 282 512 L 293.83732514237585 516.209517756016" stroke-miterlimit="10"/></g><g transform="translate(-126,-134) scale(1,1)"><path fill="none" stroke="#000000" d="M 227.16267485762415 507.790482243984 L 217 512 L 227.16267485762415 516.209517756016" stroke-miterlimit="10"/></g><g transform="translate(-126,-134) scale(1,1)"><path fill="none" stroke="#000000" d="M 336 532 L 336 800 L 600 800" stroke-miterlimit="10"/></g><g transform="translate(-126,-134) scale(1,1)"><path fill="#FFFFFF" stroke="none" d="M 589.8373251423759 804.209517756016 L 600 800 L 589.8373251423758 795.790482243984 L 578 800"/></g><g transform="translate(-126,-134) scale(1,1)"><path fill="none" stroke="#000000" d="M 589.8373251423759 804.209517756016 L 600 800 L 589.8373251423758 795.790482243984 L 578 800 L 589.8373251423759 804.209517756016" stroke-miterlimit="10"/></g><g transform="translate(-126,-134) scale(1,1)"><path fill="none" stroke="#000000" d="M 340.209517756016 542.1626748576241 L 336 532 L 331.790482243984 542.1626748576241" stroke-miterlimit="10"/></g><g transform="translate(-126,-134) scale(1,1)"><path fill="none" stroke="#000000" d="M 816 920 L 816 846" stroke-miterlimit="10"/></g><g transform="translate(-126,-134) scale(1,1)"><path fill="#FFFFFF" stroke="none" d="M 820.209517756016 856.1626748576241 L 816 846 L 811.790482243984 856.1626748576241 L 816 868"/></g><g transform="translate(-126,-134) scale(1,1)"><path fill="none" stroke="#000000" d="M 820.209517756016 856.1626748576241 L 816 846 L 811.790482243984 856.1626748576241 L 816 868 L 820.209517756016 856.1626748576241" stroke-miterlimit="10"/></g><g transform="translate(-126,-134) scale(1,1)"><path fill="#FFFFFF" stroke="none" d="M 811.790482243984 909.8373251423759 L 816 920 L 820.209517756016 909.8373251423759 L 816 898"/></g><g transform="translate(-126,-134) scale(1,1)"><path fill="none" stroke="#000000" d="M 811.790482243984 909.8373251423759 L 816 920 L 820.209517756016 909.8373251423759 L 816 898 L 811.790482243984 909.8373251423759" stroke-miterlimit="10"/></g><g transform="translate(-126,-134) scale(1,1)"><path fill="none" stroke="#000000" d="M 728 200 L 176 200 L 176 488" stroke-miterlimit="10"/></g><g transform="translate(-126,-134) scale(1,1)"><path fill="#FFFFFF" stroke="none" d="M 171.790482243984 477.83732514237585 L 176 488 L 180.209517756016 477.83732514237585 L 176 466"/></g><g transform="translate(-126,-134) scale(1,1)"><path fill="none" stroke="#000000" d="M 171.790482243984 477.83732514237585 L 176 488 L 180.209517756016 477.83732514237585 L 176 466 L 171.790482243984 477.83732514237585" stroke-miterlimit="10"/></g><g transform="translate(-126,-134) scale(1,1)"><path fill="none" stroke="#000000" d="M 717.8373251423759 204.209517756016 L 728 200 L 717.8373251423758 195.790482243984" stroke-miterlimit="10"/></g><g transform="translate(-126,-134) scale(1,1)"><path fill="#ffffff" stroke="none" d="M 1296 144 L 1354 144 L 1364 154 L 1364 182 L 1296 182 L 1296 144"/></g><g transform="translate(-126,-134) scale(1,1)"><path fill="none" stroke="#000000" d="M 1296 144 L 1354 144 L 1364 154 L 1364 182 L 1296 182 L 1296 144 L 1296 144" stroke-miterlimit="10"/></g><g transform="translate(-126,-134) scale(1,1)"><path fill="none" stroke="#000000" d="M 1354 144 L 1354 154 L 1364 154 L 1354 144" stroke-miterlimit="10"/></g><g transform="translate(-126,-134) scale(1,1)"><g><path fill="none" stroke="none"/><text fill="#000000" stroke="none" font-family="Arial" font-size="13px" font-style="normal" font-weight="normal" text-decoration="none" x="1301" y="162">状态机</text></g></g><g transform="translate(-126,-134) scale(1,1)"><path fill="none" stroke="#000000" d="M 576 520 L 576 500 L 638 500 L 638 542 L 609 542" stroke-miterlimit="10"/></g><g transform="translate(-126,-134) scale(1,1)"><path fill="#FFFFFF" stroke="none" d="M 619.1626748576241 537.790482243984 L 609 542 L 619.1626748576241 546.209517756016 L 631 542"/></g><g transform="translate(-126,-134) scale(1,1)"><path fill="none" stroke="#000000" d="M 619.1626748576241 537.790482243984 L 609 542 L 619.1626748576241 546.209517756016 L 631 542 L 619.1626748576241 537.790482243984" stroke-miterlimit="10"/></g></g></svg>